<?xml version="1.0" encoding="UTF-8" standalone="no" ?>
<!DOCTYPE svg PUBLIC "-//W3C//DTD SVG 1.1//EN" "http://www.w3.org/Graphics/SVG/1.1/DTD/svg11.dtd">
<svg xmlns="http://www.w3.org/2000/svg" xmlns:xlink="http://www.w3.org/1999/xlink" version="1.1" width="1080" height="1080" viewBox="0 0 1080 1080" xml:space="preserve">
<desc>Created with Fabric.js 5.2.4</desc>
<defs>
</defs>
<g transform="matrix(1 0 0 1 540 540)" id="38005e33-3050-48f8-9063-ffe7e249bf00"  >
<rect style="stroke: none; stroke-width: 1; stroke-dasharray: none; stroke-linecap: butt; stroke-dashoffset: 0; stroke-linejoin: miter; stroke-miterlimit: 4; fill: rgb(255,255,255); fill-rule: nonzero; opacity: 1; visibility: hidden;" vector-effect="non-scaling-stroke"  x="-540" y="-540" rx="0" ry="0" width="1080" height="1080" />
</g>
<g transform="matrix(1 0 0 1 540 540)" id="94855c6b-a472-446b-828b-d2da76ffebd2"  >
</g>
<g transform="matrix(1 0 0 1 540 540)"  >
<g style="" vector-effect="non-scaling-stroke"   >
		<g transform="matrix(1 0 0 1 204.72 -185.99)"  >
<polygon style="stroke: none; stroke-width: 1; stroke-dasharray: none; stroke-linecap: butt; stroke-dashoffset: 0; stroke-linejoin: miter; stroke-miterlimit: 4; fill: rgb(255,255,255); fill-rule: nonzero; opacity: 1;" vector-effect="non-scaling-stroke"  points="23.86,60.79 -6.89,-85.13 -23.86,-81.6 13.82,85.13 23.86,60.79 " />
</g>
		<g transform="matrix(1 0 0 1 252.58 -185.99)"  >
<polygon style="stroke: none; stroke-width: 1; stroke-dasharray: none; stroke-linecap: butt; stroke-dashoffset: 0; stroke-linejoin: miter; stroke-miterlimit: 4; fill: rgb(255,255,255); fill-rule: nonzero; opacity: 1;" vector-effect="non-scaling-stroke"  points="23.86,-81.6 6.88,-85.13 -23.86,60.79 -13.83,85.13 23.86,-81.6 " />
</g>
		<g transform="matrix(1 0 0 1 0 -45.22)"  >
<path style="stroke: none; stroke-width: 1; stroke-dasharray: none; stroke-linecap: butt; stroke-dashoffset: 0; stroke-linejoin: miter; stroke-miterlimit: 4; fill: rgb(255,255,255); fill-rule: nonzero; opacity: 1;" vector-effect="non-scaling-stroke"  transform=" translate(-949.31, -613.88)" d="M 1272.26 386.22 L 1177.96 809 L 1083.66 386.22 L 994.2800000000001 622.36 C 994.3800000000001 619.53 994.4900000000001 616.72 994.4900000000001 613.88 C 994.4900000000001 583.36 989.1900000000002 554.09 979.4800000000001 527.01 L 754.9800000000001 527.01 L 754.9800000000001 490.2 L 962.8700000000001 490.2 C 921.1000000000001 414.34 842.1400000000001 363.07 751.8100000000002 363.07 C 685.4700000000001 363.07 625.2700000000002 390.73 581.4100000000002 435.46 L 581.4100000000002 461.28999999999996 C 619.8700000000002 415.27 675.3800000000002 384.92999999999995 737.6600000000002 380.90999999999997 L 737.6600000000002 812.7 L 633.8400000000001 812.7 C 604.2400000000001 793.7800000000001 579.1500000000001 767.96 560.7000000000002 737.4300000000001 L 540.7100000000002 737.4300000000001 C 556.8100000000002 766.6800000000001 578.4500000000002 792.2700000000001 604.1300000000001 812.7 L 568.9500000000002 812.7 L 499.46000000000015 752.5500000000001 L 499.46000000000015 387.99 L 482.14000000000016 387.99 L 482.14000000000016 737.55 L 464.8100000000002 722.55 L 464.8100000000002 387.99 L 447.4800000000002 387.99 L 447.4800000000002 830.03 L 482.1400000000002 830.03 L 482.1400000000002 864.68 L 754.9800000000002 864.68 L 754.9800000000002 864.5999999999999 C 827.1100000000002 863.6299999999999 891.7200000000003 829.9999999999999 935.6100000000002 777.3699999999999 L 904.7900000000002 858.8 L 921.1100000000002 864.6099999999999 L 1079.2900000000002 450.2199999999999 L 1168.0500000000002 837.3299999999999 L 1177.9600000000003 809.8799999999999 L 1187.8700000000003 837.3299999999999 L 1276.6400000000003 450.2199999999999 L 1434.8100000000004 864.6099999999999 L 1451.1400000000003 858.8 L 1272.2600000000002 386.21999999999997 Z M 754.98 380.48 C 826.85 381.52000000000004 890.6800000000001 417.55 931.27 472.87 L 754.98 472.87 L 754.98 380.48 Z M 482.14000000000004 812.7 L 464.81000000000006 812.7 L 464.81000000000006 745.47 L 482.14000000000004 760.47 L 482.14000000000004 812.7 Z M 499.46000000000004 775.47 L 542.48 812.7 L 499.46000000000004 812.7 L 499.46000000000004 775.47 Z M 499.46000000000004 847.35 L 499.46000000000004 830.03 L 628.94 830.03 C 639.8900000000001 836.6999999999999 651.3900000000001 842.5 663.35 847.35 L 499.46000000000004 847.35 Z M 737.6600000000001 846.85 C 712.71 845.23 688.8600000000001 839.4 666.7400000000001 830.03 L 737.6600000000001 830.03 L 737.6600000000001 846.85 Z M 754.9800000000001 847.27 L 754.9800000000001 544.3299999999999 L 966.9500000000002 544.3299999999999 C 973.5900000000001 566.31 977.1600000000002 589.67 977.1600000000002 613.8799999999999 C 977.1600000000002 741.5199999999999 877.7800000000002 845.4999999999999 754.9800000000002 847.2699999999999 Z" stroke-linecap="round" />
</g>
		<g transform="matrix(1 0 0 1 -470.67 274.07)"  >
<path style="stroke: none; stroke-width: 1; stroke-dasharray: none; stroke-linecap: butt; stroke-dashoffset: 0; stroke-linejoin: miter; stroke-miterlimit: 4; fill: rgb(255,255,255); fill-rule: nonzero; opacity: 1;" vector-effect="non-scaling-stroke"  transform=" translate(-478.64, -933.17)" d="M 472.86 946.75 L 472.86 912.44 L 464.99 912.44 L 464.99 953.8900000000001 L 492.3 953.8900000000001 L 492.3 946.7500000000001 L 472.86 946.7500000000001 Z" stroke-linecap="round" />
</g>
		<g transform="matrix(1 0 0 1 -411.37 273.89)"  >
<path style="stroke: none; stroke-width: 1; stroke-dasharray: none; stroke-linecap: butt; stroke-dashoffset: 0; stroke-linejoin: miter; stroke-miterlimit: 4; fill: rgb(255,255,255); fill-rule: nonzero; opacity: 1;" vector-effect="non-scaling-stroke"  transform=" translate(-537.95, -933)" d="M 551.6 919.27 L 551.6 912.27 L 524.2900000000001 912.27 L 524.2900000000001 953.72 L 551.6 953.72 L 551.6 946.75 L 532.16 946.75 L 532.16 936.39 L 551.6 936.39 L 551.6 929.6 L 532.16 929.6 L 532.16 919.27 L 551.6 919.27 Z" stroke-linecap="round" />
</g>
		<g transform="matrix(1 0 0 1 -304.86 273.89)"  >
<path style="stroke: none; stroke-width: 1; stroke-dasharray: none; stroke-linecap: butt; stroke-dashoffset: 0; stroke-linejoin: miter; stroke-miterlimit: 4; fill: rgb(255,255,255); fill-rule: nonzero; opacity: 1;" vector-effect="non-scaling-stroke"  transform=" translate(-644.46, -933)" d="M 639.69 912.27 L 626.0400000000001 912.27 L 626.0400000000001 953.72 L 639.69 953.72 C 652.48 953.72 662.87 944.4300000000001 662.87 933 C 662.87 921.5699999999999 652.47 912.28 639.69 912.28 Z M 639.69 946.75 L 634.08 946.75 L 634.08 919.1 L 639.69 919.1 C 648.1500000000001 919.1 655.0100000000001 925.34 655.0100000000001 933 C 655.0100000000001 940.66 648.1500000000001 946.76 639.69 946.76 Z" stroke-linecap="round" />
</g>
		<g transform="matrix(1 0 0 1 -240.35 273.89)"  >
<path style="stroke: none; stroke-width: 1; stroke-dasharray: none; stroke-linecap: butt; stroke-dashoffset: 0; stroke-linejoin: miter; stroke-miterlimit: 4; fill: rgb(255,255,255); fill-rule: nonzero; opacity: 1;" vector-effect="non-scaling-stroke"  transform=" translate(-708.97, -933)" d="M 722.62 919.27 L 722.62 912.27 L 695.3100000000001 912.27 L 695.3100000000001 953.72 L 722.62 953.72 L 722.62 946.75 L 703.18 946.75 L 703.18 936.39 L 722.62 936.39 L 722.62 929.6 L 703.18 929.6 L 703.18 919.27 L 722.62 919.27 Z" stroke-linecap="round" />
</g>
		<g transform="matrix(1 0 0 1 -105.71 274.23)"  >
<path style="stroke: none; stroke-width: 1; stroke-dasharray: none; stroke-linecap: butt; stroke-dashoffset: 0; stroke-linejoin: miter; stroke-miterlimit: 4; fill: rgb(255,255,255); fill-rule: nonzero; opacity: 1;" vector-effect="non-scaling-stroke"  transform=" translate(-843.6, -933.33)" d="M 857.6 912.65 L 857.6 933.17 C 857.6 933.4499999999999 857.6700000000001 933.79 857.7 934.11 C 857.73 934.5600000000001 857.7700000000001 935.0500000000001 857.7700000000001 935.5 L 857.7700000000001 939.69 L 821.7300000000001 912.2800000000001 L 821.7300000000001 954.07 L 829.6000000000001 954.07 L 829.6000000000001 926.6600000000001 L 865.4700000000001 954.3800000000001 L 865.4700000000001 912.6600000000001 L 857.6000000000001 912.6600000000001 Z" stroke-linecap="round" />
</g>
		<g transform="matrix(1 0 0 1 -41.56 274.07)"  >
<path style="stroke: none; stroke-width: 1; stroke-dasharray: none; stroke-linecap: butt; stroke-dashoffset: 0; stroke-linejoin: miter; stroke-miterlimit: 4; fill: rgb(255,255,255); fill-rule: nonzero; opacity: 1;" vector-effect="non-scaling-stroke"  transform=" translate(-907.75, -933.17)" d="M 903.83 912.44 L 903.83 953.8900000000001 L 911.6600000000001 953.8900000000001 L 911.6600000000001 912.44 L 903.83 912.44 Z" stroke-linecap="round" />
</g>
		<g transform="matrix(1 0 0 1 18.04 273.89)"  >
<path style="stroke: none; stroke-width: 1; stroke-dasharray: none; stroke-linecap: butt; stroke-dashoffset: 0; stroke-linejoin: miter; stroke-miterlimit: 4; fill: rgb(255,255,255); fill-rule: nonzero; opacity: 1;" vector-effect="non-scaling-stroke"  transform=" translate(-967.36, -933)" d="M 981.01 919.27 L 981.01 912.27 L 953.7 912.27 L 953.7 953.72 L 981.01 953.72 L 981.01 946.75 L 961.5699999999999 946.75 L 961.5699999999999 936.39 L 981.01 936.39 L 981.01 929.6 L 961.5699999999999 929.6 L 961.5699999999999 919.27 L 981.01 919.27 Z" stroke-linecap="round" />
</g>
		<g transform="matrix(1 0 0 1 196.69 273.95)"  >
<path style="stroke: none; stroke-width: 1; stroke-dasharray: none; stroke-linecap: butt; stroke-dashoffset: 0; stroke-linejoin: miter; stroke-miterlimit: 4; fill: rgb(255,255,255); fill-rule: nonzero; opacity: 1;" vector-effect="non-scaling-stroke"  transform=" translate(-1146, -933.05)" d="M 1151.58 927 C 1149.9199999999998 928.32 1147.73 930.67 1147.6999999999998 930.71 L 1146.35 932.2 L 1144.82 930.85 C 1144.82 930.85 1141.98 928.39 1140.3799999999999 926.97 L 1122.81 912.21 L 1122.81 953.9000000000001 L 1130.85 953.9000000000001 L 1130.85 935.6700000000001 C 1130.85 935.0500000000001 1130.78 934.35 1130.75 933.7600000000001 C 1130.72 933.1400000000001 1130.68 932.5500000000001 1130.68 932.1300000000001 L 1130.68 927.5900000000001 L 1146.14 940.8600000000001 L 1161.15 927.4800000000001 L 1161.15 953.8900000000001 L 1169.19 953.8900000000001 L 1169.19 912.2 L 1151.5900000000001 927 Z" stroke-linecap="round" />
</g>
		<g transform="matrix(1 0 0 1 266.55 273.89)"  >
<path style="stroke: none; stroke-width: 1; stroke-dasharray: none; stroke-linecap: butt; stroke-dashoffset: 0; stroke-linejoin: miter; stroke-miterlimit: 4; fill: rgb(255,255,255); fill-rule: nonzero; opacity: 1;" vector-effect="non-scaling-stroke"  transform=" translate(-1215.87, -933)" d="M 1229.52 919.27 L 1229.52 912.27 L 1202.21 912.27 L 1202.21 953.72 L 1229.52 953.72 L 1229.52 946.75 L 1210.08 946.75 L 1210.08 936.39 L 1229.52 936.39 L 1229.52 929.6 L 1210.08 929.6 L 1210.08 919.27 L 1229.52 919.27 Z" stroke-linecap="round" />
</g>
		<g transform="matrix(1 0 0 1 329.76 274.07)"  >
<path style="stroke: none; stroke-width: 1; stroke-dasharray: none; stroke-linecap: butt; stroke-dashoffset: 0; stroke-linejoin: miter; stroke-miterlimit: 4; fill: rgb(255,255,255); fill-rule: nonzero; opacity: 1;" vector-effect="non-scaling-stroke"  transform=" translate(-1279.07, -933.17)" d="M 1259.32 912.44 L 1259.32 919.44 L 1275.05 919.44 L 1275.05 953.8900000000001 L 1282.9199999999998 953.8900000000001 L 1282.9199999999998 919.44 L 1298.83 919.44 L 1298.83 912.44 L 1259.32 912.44 Z" stroke-linecap="round" />
</g>
		<g transform="matrix(1 0 0 1 395.4 274.43)"  >
<path style="stroke: none; stroke-width: 1; stroke-dasharray: none; stroke-linecap: butt; stroke-dashoffset: 0; stroke-linejoin: miter; stroke-miterlimit: 4; fill: rgb(255,255,255); fill-rule: nonzero; opacity: 1;" vector-effect="non-scaling-stroke"  transform=" translate(-1344.71, -933.53)" d="M 1345.62 934.95 C 1345.62 934.95 1348 934.8000000000001 1349.2399999999998 934.44 C 1352.7399999999998 933.4200000000001 1355.1099999999997 930.12 1355.1099999999997 924.5 C 1355.1099999999997 921.55 1353.8999999999996 918.75 1351.7099999999996 916.6 C 1349.1799999999996 914.1 1345.4699999999996 912.82 1341.6599999999996 912.82 C 1339.1599999999996 912.96 1331.6799999999996 912.8900000000001 1327.9699999999996 912.82 L 1327.9699999999996 954.23 L 1336.0099999999995 954.23 L 1336.0099999999995 934.89 C 1336.0099999999995 934.89 1349.3099999999995 951.08 1352.2199999999996 954.23 L 1361.4499999999996 954.23 C 1358.8499999999997 951.7 1345.6199999999997 934.94 1345.6199999999997 934.94 Z M 1335.32 930.12 L 1335.32 918.89 L 1341.3799999999999 918.89 C 1344.33 918.58 1347.4799999999998 921.28 1347.76 924.5 C 1347.76 927.72 1344.99 930.11 1341.45 930.11 L 1335.32 930.11 Z" stroke-linecap="round" />
</g>
		<g transform="matrix(1 0 0 1 460.71 274.16)"  >
<path style="stroke: none; stroke-width: 1; stroke-dasharray: none; stroke-linecap: butt; stroke-dashoffset: 0; stroke-linejoin: miter; stroke-miterlimit: 4; fill: rgb(255,255,255); fill-rule: nonzero; opacity: 1;" vector-effect="non-scaling-stroke"  transform=" translate(-1410.02, -933.26)" d="M 1410.28 911.4 C 1397.04 911.4 1385.85 921.38 1385.85 933.16 C 1385.85 944.9399999999999 1397.04 955.13 1410.28 955.13 C 1423.52 955.13 1434.19 945.29 1434.19 933.16 C 1434.19 921.03 1423.45 911.4 1410.28 911.4 Z M 1410.28 947.61 C 1401.37 947.61 1394.41 941.27 1394.41 933.16 C 1394.41 925.05 1401.51 918.7099999999999 1410.28 918.7099999999999 C 1419.05 918.7099999999999 1425.6 925.1899999999999 1425.6 933.16 C 1425.6 941.13 1418.8799999999999 947.61 1410.28 947.61 Z" stroke-linecap="round" />
</g>
		<g transform="matrix(1 0 0 1 -172.2 274.43)"  >
<path style="stroke: none; stroke-width: 1; stroke-dasharray: none; stroke-linecap: butt; stroke-dashoffset: 0; stroke-linejoin: miter; stroke-miterlimit: 4; fill: rgb(255,255,255); fill-rule: nonzero; opacity: 1;" vector-effect="non-scaling-stroke"  transform=" translate(-777.11, -933.53)" d="M 778.02 934.95 C 778.02 934.95 780.4 934.8000000000001 781.64 934.44 C 785.14 933.4200000000001 787.51 930.12 787.51 924.5 C 787.51 921.55 786.3 918.75 784.11 916.6 C 781.58 914.1 777.87 912.82 774.0600000000001 912.82 C 771.5600000000001 912.96 764.08 912.8900000000001 760.37 912.82 L 760.37 954.23 L 768.41 954.23 L 768.41 934.89 C 768.41 934.89 781.7099999999999 951.08 784.62 954.23 L 793.85 954.23 C 791.25 951.7 778.02 934.94 778.02 934.94 Z M 767.72 930.12 L 767.72 918.89 L 773.78 918.89 C 776.73 918.58 779.88 921.28 780.16 924.5 C 780.16 927.72 777.39 930.11 773.85 930.11 L 767.72 930.11 Z" stroke-linecap="round" />
</g>
		<g transform="matrix(1 0 0 1 86.21 274.43)"  >
<path style="stroke: none; stroke-width: 1; stroke-dasharray: none; stroke-linecap: butt; stroke-dashoffset: 0; stroke-linejoin: miter; stroke-miterlimit: 4; fill: rgb(255,255,255); fill-rule: nonzero; opacity: 1;" vector-effect="non-scaling-stroke"  transform=" translate(-1035.52, -933.53)" d="M 1036.43 934.95 C 1036.43 934.95 1038.8100000000002 934.8000000000001 1040.05 934.44 C 1043.55 933.4200000000001 1045.9199999999998 930.12 1045.9199999999998 924.5 C 1045.9199999999998 921.55 1044.7099999999998 918.75 1042.5199999999998 916.6 C 1039.9899999999998 914.1 1036.2799999999997 912.82 1032.4699999999998 912.82 C 1029.9699999999998 912.96 1022.4899999999998 912.8900000000001 1018.7799999999997 912.82 L 1018.7799999999997 954.23 L 1026.8199999999997 954.23 L 1026.8199999999997 934.89 C 1026.8199999999997 934.89 1040.1199999999997 951.08 1043.0299999999997 954.23 L 1052.2599999999998 954.23 C 1049.6599999999999 951.7 1036.4299999999998 934.94 1036.4299999999998 934.94 Z M 1026.13 930.12 L 1026.13 918.89 L 1032.19 918.89 C 1035.14 918.58 1038.29 921.28 1038.5700000000002 924.5 C 1038.5700000000002 927.72 1035.8000000000002 930.11 1032.2600000000002 930.11 L 1026.13 930.11 Z" stroke-linecap="round" />
</g>
</g>
</g>
</svg>