<?xml version="1.0" encoding="UTF-8"?><svg id="uuid-c3cca594-4bc9-42c6-8a6d-a2345b5f7138" xmlns="http://www.w3.org/2000/svg" viewBox="0 0 1898.62 1332.21"><defs><style>.uuid-4691d8d2-d790-411f-821f-0fed1ef87661{fill:#b39361;}</style></defs><g><polygon class="uuid-4691d8d2-d790-411f-821f-0fed1ef87661" points="1177.89 533.91 1147.14 387.99 1130.18 391.52 1167.86 558.24 1177.89 533.91"/><polygon class="uuid-4691d8d2-d790-411f-821f-0fed1ef87661" points="1225.75 391.52 1208.78 387.99 1178.04 533.91 1188.07 558.24 1225.75 391.52"/><path class="uuid-4691d8d2-d790-411f-821f-0fed1ef87661" d="M1272.26,386.22l-94.3,422.78-94.3-422.78-89.38,236.14c.1-2.83,.21-5.64,.21-8.48,0-30.52-5.3-59.79-15.01-86.87h-224.5v-36.81h207.89c-41.77-75.86-120.73-127.13-211.06-127.13-66.34,0-126.54,27.66-170.4,72.39v25.83c38.46-46.02,93.97-76.36,156.25-80.38v431.79h-103.82c-29.6-18.92-54.69-44.74-73.14-75.27h-19.99c16.1,29.25,37.74,54.84,63.42,75.27h-35.18l-69.49-60.15V387.99h-17.32v349.56l-17.33-15V387.99h-17.33v442.04h34.66v34.65h272.84v-.08c72.13-.97,136.74-34.6,180.63-87.23l-30.82,81.43,16.32,5.81,158.18-414.39,88.76,387.11,9.91-27.45,9.91,27.45,88.77-387.11,158.17,414.39,16.33-5.81-178.88-472.58Zm-517.28-5.74c71.87,1.04,135.7,37.07,176.29,92.39h-176.29v-92.39Zm-272.84,432.22h-17.33v-67.23l17.33,15v52.23Zm17.32-37.23l43.02,37.23h-43.02v-37.23Zm0,71.88v-17.32h129.48c10.95,6.67,22.45,12.47,34.41,17.32h-163.89Zm238.2-.5c-24.95-1.62-48.8-7.45-70.92-16.82h70.92v16.82Zm17.32,.42v-302.94h211.97c6.64,21.98,10.21,45.34,10.21,69.55,0,127.64-99.38,231.62-222.18,233.39Z"/></g><path d="M472.86,946.75v-34.31h-7.87v41.45h27.31v-7.14h-19.44Z"/><path d="M551.6,919.27v-7h-27.31v41.45h27.31v-6.97h-19.44v-10.36h19.44v-6.79h-19.44v-10.33h19.44Z"/><path d="M639.69,912.27h-13.65v41.45h13.65c12.79,0,23.18-9.29,23.18-20.72s-10.4-20.72-23.18-20.72Zm0,34.48h-5.61v-27.65h5.61c8.46,0,15.32,6.24,15.32,13.9s-6.86,13.76-15.32,13.76Z"/><path d="M722.62,919.27v-7h-27.31v41.45h27.31v-6.97h-19.44v-10.36h19.44v-6.79h-19.44v-10.33h19.44Z"/><path d="M857.6,912.65v20.52c0,.28,.07,.62,.1,.94,.03,.45,.07,.94,.07,1.39v4.19l-36.04-27.41v41.79h7.87v-27.41l35.87,27.72v-41.72h-7.87Z"/><path d="M903.83,912.44v41.45h7.83v-41.45h-7.83Z"/><path d="M981.01,919.27v-7h-27.31v41.45h27.31v-6.97h-19.44v-10.36h19.44v-6.79h-19.44v-10.33h19.44Z"/><path d="M1151.58,927c-1.66,1.32-3.85,3.67-3.88,3.71l-1.35,1.49-1.53-1.35s-2.84-2.46-4.44-3.88l-17.57-14.76v41.69h8.04v-18.23c0-.62-.07-1.32-.1-1.91-.03-.62-.07-1.21-.07-1.63v-4.54l15.46,13.27,15.01-13.38v26.41h8.04v-41.69l-17.6,14.8Z"/><path d="M1229.52,919.27v-7h-27.31v41.45h27.31v-6.97h-19.44v-10.36h19.44v-6.79h-19.44v-10.33h19.44Z"/><path d="M1259.32,912.44v7h15.73v34.45h7.87v-34.45h15.91v-7h-39.51Z"/><path d="M1345.62,934.95s2.38-.15,3.62-.51c3.5-1.02,5.87-4.32,5.87-9.94,0-2.95-1.21-5.75-3.4-7.9-2.53-2.5-6.24-3.78-10.05-3.78-2.5,.14-9.98,.07-13.69,0v41.41h8.04v-19.34s13.3,16.19,16.21,19.34h9.23c-2.6-2.53-15.83-19.29-15.83-19.29Zm-10.3-4.83v-11.23h6.06c2.95-.31,6.1,2.39,6.38,5.61,0,3.22-2.77,5.61-6.31,5.61h-6.13Z"/><path d="M1410.28,911.4c-13.24,0-24.43,9.98-24.43,21.76s11.19,21.97,24.43,21.97,23.91-9.84,23.91-21.97-10.74-21.76-23.91-21.76Zm0,36.21c-8.91,0-15.87-6.34-15.87-14.45s7.1-14.45,15.87-14.45,15.32,6.48,15.32,14.45-6.72,14.45-15.32,14.45Z"/><path d="M778.02,934.95s2.38-.15,3.62-.51c3.5-1.02,5.87-4.32,5.87-9.94,0-2.95-1.21-5.75-3.4-7.9-2.53-2.5-6.24-3.78-10.05-3.78-2.5,.14-9.98,.07-13.69,0v41.41h8.04v-19.34s13.3,16.19,16.21,19.34h9.23c-2.6-2.53-15.83-19.29-15.83-19.29Zm-10.3-4.83v-11.23h6.06c2.95-.31,6.1,2.39,6.38,5.61,0,3.22-2.77,5.61-6.31,5.61h-6.13Z"/><path d="M1036.43,934.95s2.38-.15,3.62-.51c3.5-1.02,5.87-4.32,5.87-9.94,0-2.95-1.21-5.75-3.4-7.9-2.53-2.5-6.24-3.78-10.05-3.78-2.5,.14-9.98,.07-13.69,0v41.41h8.04v-19.34s13.3,16.19,16.21,19.34h9.23c-2.6-2.53-15.83-19.29-15.83-19.29Zm-10.3-4.83v-11.23h6.06c2.95-.31,6.1,2.39,6.38,5.61,0,3.22-2.77,5.61-6.31,5.61h-6.13Z"/></svg>