<?xml version="1.0" encoding="UTF-8"?>
<!DOCTYPE svg PUBLIC "-//W3C//DTD SVG 1.1//EN" "http://www.w3.org/Graphics/SVG/1.1/DTD/svg11.dtd">
<svg xmlns="http://www.w3.org/2000/svg" version="1.1" width="1024px" height="1024px" style="shape-rendering:geometricPrecision; text-rendering:geometricPrecision; image-rendering:optimizeQuality; fill-rule:evenodd; clip-rule:evenodd" xmlns:xlink="http://www.w3.org/1999/xlink">
<g><path style="opacity:1" fill="#fffefd" d="M 570.5,141.5 C 674.775,163.153 751.775,220.819 801.5,314.5C 830.445,372.905 841.112,434.572 833.5,499.5C 824.109,568.262 796.442,628.262 750.5,679.5C 707.619,724.625 655.953,755.458 595.5,772C 571.698,809.11 548.031,846.277 524.5,883.5C 520.193,890.149 515.859,896.816 511.5,903.5C 507.391,896.927 503.058,890.594 498.5,884.5C 475.354,846.885 451.688,809.552 427.5,772.5C 365.491,756.35 313.158,724.683 270.5,677.5C 225.135,626.078 198.135,566.078 189.5,497.5C 182.056,431.966 193.39,369.966 223.5,311.5C 274.461,217.249 352.794,160.249 458.5,140.5C 495.841,134.996 533.175,135.329 570.5,141.5 Z"/></g>
<g><path style="opacity:1" fill="#ffc536" d="M 757.5,322.5 C 755.234,322.859 753.401,322.192 752,320.5C 751.667,321.167 751.333,321.833 751,322.5C 750.5,321.333 749.667,320.5 748.5,320C 749.167,319.667 749.833,319.333 750.5,319C 749.333,318.5 748.5,317.667 748,316.5C 747.667,317.167 747.333,317.833 747,318.5C 745.23,316.582 743.063,316.082 740.5,317C 741.167,317.333 741.833,317.667 742.5,318C 740.98,320.129 739.313,321.296 737.5,321.5C 676.776,231.476 591.776,189.976 482.5,197C 398.116,208.653 332.783,249.82 286.5,320.5C 283.645,318.75 280.311,317.917 276.5,318C 278.5,317.667 280.5,317.333 282.5,317C 277.845,316.501 273.179,316.334 268.5,316.5C 314.643,241.6 381.309,196.433 468.5,181C 567.208,169.231 651.042,198.731 720,269.5C 734.688,285.677 747.188,303.343 757.5,322.5 Z"/></g>
<g><path style="opacity:1" fill="#fffefe" d="M 737.5,321.5 C 770.059,376.554 782.059,435.887 773.5,499.5C 761.064,570.733 726.397,628.4 669.5,672.5C 636.517,696.561 599.85,712.394 559.5,720C 543.542,744.081 527.709,768.248 512,792.5C 496.376,768.752 480.876,744.919 465.5,721C 424.561,712.864 387.228,696.698 353.5,672.5C 296.603,628.4 261.936,570.733 249.5,499.5C 240.887,435.382 253.22,375.715 286.5,320.5C 332.783,249.82 398.116,208.653 482.5,197C 591.776,189.976 676.776,231.476 737.5,321.5 Z"/></g>
<g><path style="opacity:1" fill="#ffbf36" d="M 268.5,316.5 C 273.179,316.334 277.845,316.501 282.5,317C 280.5,317.333 278.5,317.667 276.5,318C 280.311,317.917 283.645,318.75 286.5,320.5C 253.22,375.715 240.887,435.382 249.5,499.5C 249.725,501.716 248.892,503.383 247,504.5C 244.58,503.512 242.247,503.845 240,505.5C 239.667,505.167 239.333,504.833 239,504.5C 237.238,506.262 235.405,506.928 233.5,506.5C 222.293,438.876 233.959,375.542 268.5,316.5 Z"/></g>
<g><path style="opacity:1" fill="#ffbf36" d="M 757.5,322.5 C 788.915,378.253 799.915,437.92 790.5,501.5C 789.25,501.577 788.417,502.244 788,503.5C 787.374,501.009 786.541,501.009 785.5,503.5C 784.459,501.009 783.626,501.009 783,503.5C 782.082,501.368 780.749,500.701 779,501.5C 777.238,499.738 775.405,499.072 773.5,499.5C 782.059,435.887 770.059,376.554 737.5,321.5C 739.313,321.296 740.98,320.129 742.5,318C 741.833,317.667 741.167,317.333 740.5,317C 743.063,316.082 745.23,316.582 747,318.5C 747.333,317.833 747.667,317.167 748,316.5C 748.5,317.667 749.333,318.5 750.5,319C 749.833,319.333 749.167,319.667 748.5,320C 749.667,320.5 750.5,321.333 751,322.5C 751.333,321.833 751.667,321.167 752,320.5C 753.401,322.192 755.234,322.859 757.5,322.5 Z"/></g>
<g><path style="opacity:1" fill="#ffbe34" d="M 587.5,494.5 C 587.631,493.761 587.464,493.094 587,492.5C 584.667,493.167 582.333,493.833 580,494.5C 579.259,493.359 578.425,493.359 577.5,494.5C 576.459,492.009 575.626,492.009 575,494.5C 572.962,492.928 570.629,491.928 568,491.5C 565.779,491.706 563.612,492.039 561.5,492.5C 560.416,491.335 559.583,490.002 559,488.5C 558,489.833 557,491.167 556,492.5C 555.667,491.833 555.333,491.167 555,490.5C 554,491.833 553,493.167 552,494.5C 551.374,492.009 550.541,492.009 549.5,494.5C 547.388,494.039 545.221,493.706 543,493.5C 540.101,494.874 539.934,496.374 542.5,498C 541.016,498.662 539.683,499.496 538.5,500.5C 543.482,475.902 548.149,451.235 552.5,426.5C 531.497,426.333 510.497,426.5 489.5,427C 484.85,448.748 480.517,470.582 476.5,492.5C 470.666,492.476 464.833,492.476 459,492.5C 456.667,493.167 454.333,493.833 452,494.5C 451.259,493.359 450.425,493.359 449.5,494.5C 448.459,492.009 447.626,492.009 447,494.5C 444.962,492.928 442.629,491.928 440,491.5C 437.779,491.706 435.612,492.039 433.5,492.5C 432.416,491.335 431.583,490.002 431,488.5C 430.623,489.942 429.79,490.942 428.5,491.5C 432.243,471.121 436.243,450.787 440.5,430.5C 427.179,429.667 413.846,429.167 400.5,429C 387.969,424.112 382.469,414.945 384,401.5C 386.5,392.333 392.333,386.5 401.5,384C 417.51,383.833 433.51,383.333 449.5,382.5C 452.345,367.107 455.512,351.774 459,336.5C 469.702,319.313 483.036,316.98 499,329.5C 504.048,336.031 505.715,343.365 504,351.5C 501.326,362.033 499.493,372.7 498.5,383.5C 519.5,383.5 540.5,383.5 561.5,383.5C 563.676,370.118 566.176,356.784 569,343.5C 574.993,327.42 586.16,321.92 602.5,327C 613.808,333.226 617.974,342.726 615,355.5C 612.844,364.782 611.01,374.115 609.5,383.5C 617.84,383.334 626.173,383.5 634.5,384C 647.282,388.727 653.115,397.894 652,411.5C 649.978,419.052 645.478,424.552 638.5,428C 625.875,429.088 613.208,429.921 600.5,430.5C 596.399,452.005 592.066,473.338 587.5,494.5 Z"/></g>
<g><path style="opacity:1" fill="#fffefe" d="M 538.5,500.5 C 517.526,502.489 496.193,503.156 474.5,502.5C 475.04,499.135 475.706,495.802 476.5,492.5C 480.517,470.582 484.85,448.748 489.5,427C 510.497,426.5 531.497,426.333 552.5,426.5C 548.149,451.235 543.482,475.902 538.5,500.5 Z"/></g>
<g><path style="opacity:1" fill="#ffba34" d="M 476.5,492.5 C 475.706,495.802 475.04,499.135 474.5,502.5C 496.193,503.156 517.526,502.489 538.5,500.5C 539.683,499.496 541.016,498.662 542.5,498C 539.934,496.374 540.101,494.874 543,493.5C 545.221,493.706 547.388,494.039 549.5,494.5C 550.541,492.009 551.374,492.009 552,494.5C 553,493.167 554,491.833 555,490.5C 555.333,491.167 555.667,491.833 556,492.5C 557,491.167 558,489.833 559,488.5C 559.583,490.002 560.416,491.335 561.5,492.5C 563.612,492.039 565.779,491.706 568,491.5C 570.629,491.928 572.962,492.928 575,494.5C 575.626,492.009 576.459,492.009 577.5,494.5C 578.425,493.359 579.259,493.359 580,494.5C 582.333,493.833 584.667,493.167 587,492.5C 587.464,493.094 587.631,493.761 587.5,494.5C 587.5,495.5 587.5,496.5 587.5,497.5C 586.596,498.209 586.263,499.209 586.5,500.5C 597.5,500.5 608.5,500.5 619.5,500.5C 637.945,507.053 642.778,519.053 634,536.5C 630.245,541.295 625.412,544.462 619.5,546C 605.504,546.5 591.504,546.667 577.5,546.5C 575.119,561.239 572.286,575.906 569,590.5C 563.916,603.578 554.416,609.078 540.5,607C 527.72,602.276 521.886,593.109 523,579.5C 525.362,568.857 527.529,558.19 529.5,547.5C 508.177,546.5 486.844,546.167 465.5,546.5C 463.164,562.011 459.998,577.345 456,592.5C 447.209,604.643 436.042,607.476 422.5,601C 414.302,594.399 410.802,585.899 412,575.5C 414.286,565.905 416.119,556.239 417.5,546.5C 407.828,546.666 398.161,546.5 388.5,546C 374.647,541.455 368.48,531.955 370,517.5C 373.235,508.599 379.402,502.766 388.5,500C 401.496,499.5 414.496,499.333 427.5,499.5C 427.401,496.763 427.735,494.096 428.5,491.5C 429.79,490.942 430.623,489.942 431,488.5C 431.583,490.002 432.416,491.335 433.5,492.5C 435.612,492.039 437.779,491.706 440,491.5C 442.629,491.928 444.962,492.928 447,494.5C 447.626,492.009 448.459,492.009 449.5,494.5C 450.425,493.359 451.259,493.359 452,494.5C 454.333,493.833 456.667,493.167 459,492.5C 464.833,492.476 470.666,492.476 476.5,492.5 Z"/></g>
<g><path style="opacity:1" fill="#ffd177" d="M 587.5,497.5 C 597.961,499.158 608.628,500.158 619.5,500.5C 608.5,500.5 597.5,500.5 586.5,500.5C 586.263,499.209 586.596,498.209 587.5,497.5 Z"/></g>
<g><path style="opacity:1" fill="#ffb936" d="M 773.5,499.5 C 775.405,499.072 777.238,499.738 779,501.5C 780.749,500.701 782.082,501.368 783,503.5C 783.626,501.009 784.459,501.009 785.5,503.5C 786.541,501.009 787.374,501.009 788,503.5C 788.417,502.244 789.25,501.577 790.5,501.5C 778.949,572.3 745.949,630.634 691.5,676.5C 690.77,675.288 689.77,674.288 688.5,673.5C 689.025,672.808 689.692,672.308 690.5,672C 687.802,670.571 685.635,671.405 684,674.5C 683.667,673.833 683.333,673.167 683,672.5C 682.161,673.624 680.994,674.291 679.5,674.5C 675.989,674.393 672.656,673.726 669.5,672.5C 726.397,628.4 761.064,570.733 773.5,499.5 Z"/></g>
<g><path style="opacity:1" fill="#ffb936" d="M 249.5,499.5 C 261.936,570.733 296.603,628.4 353.5,672.5C 351.245,673.215 349.412,674.548 348,676.5C 347.667,675.833 347.333,675.167 347,674.5C 346.333,675.833 345.333,676.833 344,677.5C 342.333,677.5 340.667,677.5 339,677.5C 338.25,676.874 337.416,676.374 336.5,676C 338.5,675.667 340.5,675.333 342.5,675C 339.666,674.955 337.166,674.121 335,672.5C 332.393,673.123 329.893,673.79 327.5,674.5C 276.47,629.796 245.136,573.796 233.5,506.5C 235.405,506.928 237.238,506.262 239,504.5C 239.333,504.833 239.667,505.167 240,505.5C 242.247,503.845 244.58,503.512 247,504.5C 248.892,503.383 249.725,501.716 249.5,499.5 Z"/></g>
<g><path style="opacity:1" fill="#ffb436" d="M 691.5,676.5 C 667.586,696.305 640.919,711.805 611.5,723C 597.172,727.61 582.838,732.11 568.5,736.5C 549.749,766.336 530.749,796.003 511.5,825.5C 492.251,796.003 473.251,766.336 454.5,736.5C 406.868,726.182 364.534,705.515 327.5,674.5C 329.893,673.79 332.393,673.123 335,672.5C 337.166,674.121 339.666,674.955 342.5,675C 340.5,675.333 338.5,675.667 336.5,676C 337.416,676.374 338.25,676.874 339,677.5C 340.667,677.5 342.333,677.5 344,677.5C 345.333,676.833 346.333,675.833 347,674.5C 347.333,675.167 347.667,675.833 348,676.5C 349.412,674.548 351.245,673.215 353.5,672.5C 387.228,696.698 424.561,712.864 465.5,721C 480.876,744.919 496.376,768.752 512,792.5C 527.709,768.248 543.542,744.081 559.5,720C 599.85,712.394 636.517,696.561 669.5,672.5C 672.656,673.726 675.989,674.393 679.5,674.5C 680.994,674.291 682.161,673.624 683,672.5C 683.333,673.167 683.667,673.833 684,674.5C 685.635,671.405 687.802,670.571 690.5,672C 689.692,672.308 689.025,672.808 688.5,673.5C 689.77,674.288 690.77,675.288 691.5,676.5 Z"/></g>
</svg>
